<?xml version="1.0" encoding="utf-8"?>
<!-- Generator: Adobe Illustrator 21.0.0, SVG Export Plug-In . SVG Version: 6.00 Build 0)  -->
<svg version="1.1" id="Modo_de_isolamento" xmlns="http://www.w3.org/2000/svg" xmlns:xlink="http://www.w3.org/1999/xlink" x="0px"
	 y="0px" viewBox="0 0 300 287.4" style="enable-background:new 0 0 300 287.4;" xml:space="preserve">
<style type="text/css">
	.st0{fill:#1AB394;}
</style>
<path class="st0" d="M282,0H18C8.1,0,0,8.1,0,18v189c0,9.9,8.1,18,18,18h30.6v53.4c0,8.1,9.6,12,15.3,6.3l59.7-59.7H282
	c9.9,0,18-8.1,18-18V18C300,8.1,291.9,0,282,0z M150.3,165H48.6c-8.4,0-15-6.6-15-15s6.6-15,15-15h101.7c8.4,0,15,6.6,15,15
	S158.7,165,150.3,165z M252,90H48.6c-8.4,0-15-6.6-15-15s6.6-15,15-15H252c8.4,0,15,6.6,15,15S260.4,90,252,90z"/>
</svg>
