<?xml version="1.0" encoding="utf-8"?>
<!-- Generator: Adobe Illustrator 21.0.0, SVG Export Plug-In . SVG Version: 6.00 Build 0)  -->
<svg version="1.1" id="Camada_1" xmlns="http://www.w3.org/2000/svg" xmlns:xlink="http://www.w3.org/1999/xlink" x="0px" y="0px"
	 viewBox="0 0 24.8 20.3" style="enable-background:new 0 0 24.8 20.3;" xml:space="preserve">
<style type="text/css">
	.st0{fill:#E0FAF1;}
</style>
<path class="st0" d="M24.2,8.8l-8.3-8.3C15.5,0.2,15,0,14.5,0s-0.9,0.2-1.2,0.5c-0.7,0.7-0.7,1.8,0,2.6l5.4,5.4h-0.1h-7.1H1.8
	c-1,0-1.8,0.8-1.8,1.8s0.8,1.5,1.8,1.5h8.8h8h0.1l-5.4,5.4c-0.7,0.7-0.7,1.8,0,2.6c0.3,0.3,0.7,0.5,1.2,0.5s1-0.2,1.4-0.5l8.3-8.3
	c0.4-0.4,0.6-0.9,0.6-1.3C24.8,9.7,24.6,9.2,24.2,8.8z"/>
</svg>
