<?xml version="1.0" encoding="utf-8"?>
<!-- Generator: Adobe Illustrator 21.0.0, SVG Export Plug-In . SVG Version: 6.00 Build 0)  -->
<svg version="1.1" id="Camada_1" xmlns="http://www.w3.org/2000/svg" xmlns:xlink="http://www.w3.org/1999/xlink" x="0px" y="0px"
	 viewBox="0 0 14.5 24.4" style="enable-background:new 0 0 14.5 24.4;" xml:space="preserve">
<style type="text/css">
	.st0{fill:#1AB394;}
</style>
<path class="st0" d="M13.9,10.6l-10-10C3.4,0.2,2.8,0,2.2,0C1.6,0,1.1,0.2,0.7,0.6c-0.9,0.9-0.9,2.2,0,3.1l8.5,8.5l-8.5,8.5
	c-0.9,0.9-0.9,2.2,0,3.1c0.4,0.4,0.9,0.6,1.5,0.6c0.6,0,1.2-0.2,1.7-0.6l10-10c0.5-0.5,0.7-1,0.7-1.6C14.6,11.6,14.3,11.1,13.9,10.6
	z"/>
</svg>
