<?xml version="1.0" encoding="utf-8"?>
<!-- Generator: Adobe Illustrator 21.0.0, SVG Export Plug-In . SVG Version: 6.00 Build 0)  -->
<svg version="1.1" xmlns="http://www.w3.org/2000/svg" xmlns:xlink="http://www.w3.org/1999/xlink" x="0px" y="0px"
	 viewBox="0 0 1920 615" style="enable-background:new 0 0 1920 615;" xml:space="preserve" preserveAspectRatio="none">
<style type="text/css">
	.st0{fill:url(#SVGID_1_);}
	.st1{fill:url(#SVGID_2_);}
	.st2{fill:url(#SVGID_3_);}
	.st3{fill:url(#SVGID_4_);}
	.st4{fill:url(#SVGID_5_);}
	.st5{fill:url(#SVGID_6_);}
	.st6{fill:url(#SVGID_7_);}
	.st7{fill:url(#SVGID_8_);}
	.st8{fill:url(#SVGID_9_);}
	.st9{fill:url(#SVGID_10_);}
	.st10{display:none;}
	.st11{display:inline;fill:url(#SVGID_11_);}
	.st12{display:inline;fill:url(#SVGID_12_);}
	.st13{display:inline;fill:url(#SVGID_13_);}
	.st14{display:inline;fill:url(#SVGID_14_);}
	.st15{display:inline;fill:url(#SVGID_15_);}
	.st16{display:inline;fill:url(#SVGID_16_);}
	.st17{display:inline;fill:url(#SVGID_17_);}
	.st18{display:inline;fill:url(#SVGID_18_);}
</style>
<g id="Camada_2">s

		<linearGradient id="SVGID_1_" gradientUnits="userSpaceOnUse" x1="1593.75" y1="941.2496" x2="326.25" y2="-326.2503" gradientTransform="matrix(1 0 0 1 4.513425e-05 3.325646e-04)">
		<stop  offset="0" style="stop-color:#38EF7D"/>
		<stop  offset="1" style="stop-color:#11998E"/>
	</linearGradient>
	<polygon class="st0" points="1920,0 960,130.3 0,0 0,615 1920,615 	"/>
	<linearGradient id="SVGID_2_" gradientUnits="userSpaceOnUse" x1="0" y1="176.6477" x2="1920" y2="176.6477">
		<stop  offset="0" style="stop-color:#E0FAF1;stop-opacity:0.2"/>
		<stop  offset="8.951709e-02" style="stop-color:#E0FAF1;stop-opacity:0.1821"/>
		<stop  offset="0.9988" style="stop-color:#E0FAF1;stop-opacity:0"/>
	</linearGradient>
	<polygon class="st1" points="0,91.9 1920,353.3 1920,0 960,130.3 0,0 	"/>
	<linearGradient id="SVGID_3_" gradientUnits="userSpaceOnUse" x1="151.5156" y1="0" x2="151.5156" y2="615">
		<stop  offset="0" style="stop-color:#12896D;stop-opacity:0.2"/>
		<stop  offset="1" style="stop-color:#12896D;stop-opacity:0"/>
	</linearGradient>
	<polygon class="st2" points="303,615 0,573.9 0,0 303,41.1 	"/>
	<linearGradient id="SVGID_4_" gradientUnits="userSpaceOnUse" x1="0" y1="459.3688" x2="960.0312" y2="459.3688">
		<stop  offset="0" style="stop-color:#12896D;stop-opacity:0.2"/>
		<stop  offset="1" style="stop-color:#12896D;stop-opacity:0"/>
	</linearGradient>
	<polyline class="st3" points="0,303.7 960,434.4 960,615 0,484.7 0,303.7 	"/>

		<linearGradient id="SVGID_5_" gradientUnits="userSpaceOnUse" x1="-0.411" y1="266.2995" x2="1919.589" y2="266.2995" gradientTransform="matrix(-1 0 0 1 1919.589 0)">
		<stop  offset="0" style="stop-color:#E0FAF1;stop-opacity:0.2"/>
		<stop  offset="0.9988" style="stop-color:#E0FAF1;stop-opacity:0"/>
	</linearGradient>
	<polygon class="st4" points="1920,271.3 0.5,532.6 0,0 960,130.3 1920,0 	"/>
	<linearGradient id="SVGID_6_" gradientUnits="userSpaceOnUse" x1="652.0485" y1="592.1253" x2="652.0485" y2="69.7606">
		<stop  offset="0" style="stop-color:#E0FAF1;stop-opacity:0.1"/>
		<stop  offset="8.962709e-02" style="stop-color:#E0FAF1;stop-opacity:9.103730e-02"/>
		<stop  offset="1" style="stop-color:#E0FAF1;stop-opacity:0"/>
	</linearGradient>
	<polygon class="st5" points="514,554.6 790.1,592.1 790.1,107.2 514,69.8 	"/>

		<linearGradient id="SVGID_7_" gradientUnits="userSpaceOnUse" x1="862.6251" y1="262.653" x2="862.6251" y2="-225.7497" gradientTransform="matrix(-1 0 0 -1 1303.686 303.7792)">
		<stop  offset="0" style="stop-color:#E0FAF1;stop-opacity:0.1"/>
		<stop  offset="8.962709e-02" style="stop-color:#E0FAF1;stop-opacity:9.103730e-02"/>
		<stop  offset="1" style="stop-color:#E0FAF1;stop-opacity:0"/>
	</linearGradient>
	<polygon class="st6" points="579.1,78.6 303,41.1 303,492 579.1,529.5 	"/>

		<linearGradient id="SVGID_8_" gradientUnits="userSpaceOnUse" x1="205.6251" y1="615" x2="205.6251" y2="62.9291" gradientTransform="matrix(-1 0 0 1 1303.686 0)">
		<stop  offset="0" style="stop-color:#E0FAF1;stop-opacity:0.1"/>
		<stop  offset="8.951709e-02" style="stop-color:#E0FAF1;stop-opacity:9.103730e-02"/>
		<stop  offset="0.9988" style="stop-color:#E0FAF1;stop-opacity:0"/>
	</linearGradient>
	<polygon class="st7" points="1236.1,577.4 960,615 960,62.9 1236.1,62.9 	"/>

		<linearGradient id="SVGID_9_" gradientUnits="userSpaceOnUse" x1="-960.3485" y1="459.371" x2="-0.3798" y2="459.371" gradientTransform="matrix(-1 0 0 1 959.6515 0)">
		<stop  offset="0" style="stop-color:#E0FAF1;stop-opacity:5.000000e-02"/>
		<stop  offset="1" style="stop-color:#E0FAF1;stop-opacity:0"/>
	</linearGradient>
	<polyline class="st8" points="1920,303.7 960,434.4 960,615 1920,484.7 1920,303.7 	"/>
	<linearGradient id="SVGID_10_" gradientUnits="userSpaceOnUse" x1="1789.0101" y1="91.9417" x2="1789.0101" y2="615">
		<stop  offset="0" style="stop-color:#12896D;stop-opacity:0.3"/>
		<stop  offset="1" style="stop-color:#12896D;stop-opacity:0"/>
	</linearGradient>
	<polygon class="st9" points="1920,91.9 1658,127.6 1658,615 1920,579.4 	"/>
</g>
<g id="Camada_3" class="st10">

		<linearGradient id="SVGID_11_" gradientUnits="userSpaceOnUse" x1="-960.3485" y1="513.8085" x2="-0.3798" y2="513.8085" gradientTransform="matrix(-1 0 0 1 959.6515 0)">
		<stop  offset="0" style="stop-color:#E0FAF1;stop-opacity:5.000000e-02"/>
		<stop  offset="1" style="stop-color:#E0FAF1;stop-opacity:0"/>
	</linearGradient>
	<polyline class="st11" points="1920,339.4 960,470 960,688.2 1920,557.9 1920,339.4 	"/>
	<linearGradient id="SVGID_12_" gradientUnits="userSpaceOnUse" x1="652.0485" y1="446.8834" x2="652.0485" y2="-142.7708">
		<stop  offset="0" style="stop-color:#E0FAF1;stop-opacity:0.1"/>
		<stop  offset="8.962709e-02" style="stop-color:#E0FAF1;stop-opacity:9.103730e-02"/>
		<stop  offset="1" style="stop-color:#E0FAF1;stop-opacity:0"/>
	</linearGradient>
	<polygon class="st12" points="514,409.3 790.1,446.9 790.1,-142.8 514,-142.8 	"/>

		<linearGradient id="SVGID_13_" gradientUnits="userSpaceOnUse" x1="-0.411" y1="123.5287" x2="1919.589" y2="123.5287" gradientTransform="matrix(-1 0 0 1 1919.589 0)">
		<stop  offset="0" style="stop-color:#E0FAF1;stop-opacity:0.2"/>
		<stop  offset="1" style="stop-color:#E0FAF1;stop-opacity:0"/>
	</linearGradient>
	<polygon class="st13" points="1920,128.5 0.5,389.8 0,-142.8 1920,-142.8 	"/>

		<linearGradient id="SVGID_14_" gradientUnits="userSpaceOnUse" x1="862.6251" y1="446.55" x2="862.6251" y2="-114.8097" gradientTransform="matrix(-1 0 0 -1 1303.686 303.7792)">
		<stop  offset="0" style="stop-color:#E0FAF1;stop-opacity:0.1"/>
		<stop  offset="8.962709e-02" style="stop-color:#E0FAF1;stop-opacity:9.103730e-02"/>
		<stop  offset="1" style="stop-color:#E0FAF1;stop-opacity:0"/>
	</linearGradient>
	<polygon class="st14" points="579.1,-142.8 303,-142.8 303,380.6 579.1,418.6 	"/>
	<linearGradient id="SVGID_15_" gradientUnits="userSpaceOnUse" x1="0" y1="513.8063" x2="960.0312" y2="513.8063">
		<stop  offset="0" style="stop-color:#12896D;stop-opacity:0.2"/>
		<stop  offset="1" style="stop-color:#12896D;stop-opacity:0"/>
	</linearGradient>
	<polyline class="st15" points="0,339.4 960,470 960,688.2 0,557.9 0,339.4 	"/>
	<linearGradient id="SVGID_16_" gradientUnits="userSpaceOnUse" x1="151.5156" y1="-142.7708" x2="151.5156" y2="557.9375">
		<stop  offset="0" style="stop-color:#12896D;stop-opacity:0.2"/>
		<stop  offset="1" style="stop-color:#12896D;stop-opacity:0"/>
	</linearGradient>
	<rect y="-142.8" class="st16" width="303" height="700.7"/>

		<linearGradient id="SVGID_17_" gradientUnits="userSpaceOnUse" x1="205.6251" y1="688.2292" x2="205.6251" y2="98.5749" gradientTransform="matrix(-1 0 0 1 1303.686 0)">
		<stop  offset="0" style="stop-color:#E0FAF1;stop-opacity:0.1"/>
		<stop  offset="8.962709e-02" style="stop-color:#E0FAF1;stop-opacity:9.103730e-02"/>
		<stop  offset="1" style="stop-color:#E0FAF1;stop-opacity:0"/>
	</linearGradient>
	<polygon class="st17" points="1236.1,650.7 960,688.2 960,98.6 1236.1,98.6 	"/>
	<linearGradient id="SVGID_18_" gradientUnits="userSpaceOnUse" x1="1789.0101" y1="-96.6183" x2="1789.0101" y2="593.4935">
		<stop  offset="0" style="stop-color:#12896D;stop-opacity:0.3"/>
		<stop  offset="1" style="stop-color:#12896D;stop-opacity:0"/>
	</linearGradient>
	<polygon class="st18" points="1920,-96.6 1658,-61 1658,593.5 1920,557.9 	"/>
</g>
</svg>
