<?xml version="1.0" encoding="utf-8"?>
<!-- Generator: Adobe Illustrator 21.0.0, SVG Export Plug-In . SVG Version: 6.00 Build 0)  -->
<svg version="1.1" xmlns="http://www.w3.org/2000/svg" xmlns:xlink="http://www.w3.org/1999/xlink" x="0px" y="0px"
	 viewBox="0 0 1920 955" style="enable-background:new 0 0 1920 955;" xml:space="preserve">
<style type="text/css">
	.st0{fill:url(#SVGID_1_);}
	.st1{fill:url(#SVGID_2_);}
	.st2{fill:url(#SVGID_3_);}
	.st3{fill:url(#SVGID_4_);}
	.st4{fill:url(#SVGID_5_);}
	.st5{fill:url(#SVGID_6_);}
	.st6{fill:url(#SVGID_7_);}
	.st7{fill:url(#SVGID_8_);}
	.st8{fill:url(#SVGID_9_);}
	.st9{fill:url(#SVGID_10_);}
</style>
<g id="Camada_2">
</g>
<g id="Camada_3">
	<linearGradient id="SVGID_1_" gradientUnits="userSpaceOnUse" x1="1646.1771" y1="1098.5312" x2="273.8229" y2="-273.8229">
		<stop  offset="1.215280e-03" style="stop-color:#11998E"/>
		<stop  offset="0.1885" style="stop-color:#149F8D"/>
		<stop  offset="0.4302" style="stop-color:#1BAF8A"/>
		<stop  offset="0.7017" style="stop-color:#27C984"/>
		<stop  offset="0.9932" style="stop-color:#38EE7D"/>
		<stop  offset="1" style="stop-color:#38EF7D"/>
	</linearGradient>
	<polygon class="st0" points="1920,824.7 960,955 0,824.7 0,0 1920,0 	"/>

		<linearGradient id="SVGID_2_" gradientUnits="userSpaceOnUse" x1="-960.3485" y1="718.5793" x2="-0.3798" y2="718.5793" gradientTransform="matrix(-1 0 0 1 959.6515 0)">
		<stop  offset="0" style="stop-color:#E0FAF1;stop-opacity:5.000000e-02"/>
		<stop  offset="1" style="stop-color:#E0FAF1;stop-opacity:0"/>
	</linearGradient>
	<polyline class="st1" points="1920,482.2 960,612.8 960,955 1920,824.7 1920,482.2 	"/>
	<linearGradient id="SVGID_3_" gradientUnits="userSpaceOnUse" x1="652.0485" y1="713.4042" x2="652.0485" y2="123.75">
		<stop  offset="0" style="stop-color:#E0FAF1;stop-opacity:0.1"/>
		<stop  offset="8.962709e-02" style="stop-color:#E0FAF1;stop-opacity:9.103730e-02"/>
		<stop  offset="1" style="stop-color:#E0FAF1;stop-opacity:0"/>
	</linearGradient>
	<polygon class="st2" points="514,675.8 790.1,713.4 790.1,123.8 514,123.8 	"/>

		<linearGradient id="SVGID_4_" gradientUnits="userSpaceOnUse" x1="-0.411" y1="266.2995" x2="1919.589" y2="266.2995" gradientTransform="matrix(-1 0 0 1 1919.589 0)">
		<stop  offset="0" style="stop-color:#E0FAF1;stop-opacity:0.2"/>
		<stop  offset="1" style="stop-color:#E0FAF1;stop-opacity:0"/>
	</linearGradient>
	<polygon class="st3" points="1920,271.3 0.5,532.6 0,0 1920,0 	"/>

		<linearGradient id="SVGID_5_" gradientUnits="userSpaceOnUse" x1="862.6251" y1="713.3209" x2="862.6251" y2="151.9611" gradientTransform="matrix(-1 0 0 -1 1303.686 713.3209)">
		<stop  offset="0" style="stop-color:#E0FAF1;stop-opacity:0.1"/>
		<stop  offset="8.962709e-02" style="stop-color:#E0FAF1;stop-opacity:9.103730e-02"/>
		<stop  offset="1" style="stop-color:#E0FAF1;stop-opacity:0"/>
	</linearGradient>
	<polygon class="st4" points="579.1,0 303,0 303,523.4 579.1,561.4 	"/>
	<linearGradient id="SVGID_6_" gradientUnits="userSpaceOnUse" x1="0" y1="780.5771" x2="960.0312" y2="780.5771">
		<stop  offset="0" style="stop-color:#12896D;stop-opacity:0.2"/>
		<stop  offset="1" style="stop-color:#12896D;stop-opacity:0"/>
	</linearGradient>
	<polyline class="st5" points="0,606.2 960,736.8 960,955 0,824.7 0,606.2 	"/>
	<linearGradient id="SVGID_7_" gradientUnits="userSpaceOnUse" x1="151.5156" y1="9.094947e-13" x2="151.5156" y2="700.7083">
		<stop  offset="0" style="stop-color:#12896D;stop-opacity:0.2"/>
		<stop  offset="1" style="stop-color:#12896D;stop-opacity:0"/>
	</linearGradient>
	<rect y="0" class="st6" width="303" height="700.7"/>

		<linearGradient id="SVGID_8_" gradientUnits="userSpaceOnUse" x1="205.6251" y1="955" x2="205.6251" y2="365.3458" gradientTransform="matrix(-1 0 0 1 1303.686 0)">
		<stop  offset="0" style="stop-color:#E0FAF1;stop-opacity:0.1"/>
		<stop  offset="8.962709e-02" style="stop-color:#E0FAF1;stop-opacity:9.103730e-02"/>
		<stop  offset="1" style="stop-color:#E0FAF1;stop-opacity:0"/>
	</linearGradient>
	<polygon class="st7" points="1236.1,917.4 960,955 960,365.3 1236.1,365.3 	"/>
	<linearGradient id="SVGID_9_" gradientUnits="userSpaceOnUse" x1="1789.0101" y1="46.1525" x2="1789.0101" y2="736.2643">
		<stop  offset="0" style="stop-color:#12896D;stop-opacity:0.3"/>
		<stop  offset="1" style="stop-color:#12896D;stop-opacity:0"/>
	</linearGradient>
	<polygon class="st8" points="1920,46.2 1658,81.8 1658,736.3 1920,700.7 	"/>
	<linearGradient id="SVGID_10_" gradientUnits="userSpaceOnUse" x1="0" y1="153.6477" x2="1920" y2="153.6477">
		<stop  offset="0" style="stop-color:#E0FAF1;stop-opacity:0.2"/>
		<stop  offset="8.962709e-02" style="stop-color:#E0FAF1;stop-opacity:0.1821"/>
		<stop  offset="1" style="stop-color:#E0FAF1;stop-opacity:0"/>
	</linearGradient>
	<polygon class="st9" points="0,45.9 1920,307.3 1920,0 0,0 	"/>
</g>
</svg>
