<?xml version="1.0" encoding="utf-8"?>
<!-- Generator: Adobe Illustrator 21.0.0, SVG Export Plug-In . SVG Version: 6.00 Build 0)  -->
<svg version="1.1" id="BRANDING" xmlns="http://www.w3.org/2000/svg" xmlns:xlink="http://www.w3.org/1999/xlink" x="0px" y="0px"
	 viewBox="0 0 612.1 141.3" style="enable-background:new 0 0 612.1 141.3;" xml:space="preserve">
<style type="text/css">
	.st0{fill:#FFFFFF;}
	.st1{display:none;fill:#FFFFFF;}
</style>
<g id="LOGO">
	<path class="st0" d="M73.5,32.8L57.1,16.4L73.5,0c0,0-2.9,7.1-2.9,16.4S73.5,32.8,73.5,32.8z"/>
	<polygon class="st0" points="108.3,21 73.2,40.4 38.7,21 4,40.4 4,63.7 143,42.9 	"/>
	<polygon class="st0" points="109,105.9 139,79 139,52.9 0,73.6 0,79 16.7,94 	"/>
	<polygon class="st0" points="36.1,104.8 77.4,141.3 108.3,114 	"/>
</g>
<g id="Lettering">
	<path class="st0" d="M213.8,62.1h-14.3v51.4h-14.3V50H211c0,0,6.4,0,9.6,0c5.7,0,10.1,2.2,12.2,4.6c2,2.4,4.2,6.1,4.2,11
		s0,7.3,0,11.6v36.3h-14.3V79.4c0-3.3,0,1.3,0-11.1C222.6,63.1,219.3,62.1,213.8,62.1z"/>
	<path class="st1" d="M305.3,110.2c-2.8,0.7-6.4,1.4-10.8,2.2c-4.5,0.7-9.3,1.1-14.6,1.1c-5.1,0-9.2-0.7-12.5-2.2
		c-3.4-1.4-6-3.4-8.1-5.9s-3.5-5.5-4.3-9s-1.3-7.3-1.3-11.6V50H268v32.5c0,6.6,1,11.4,2.9,14.2c1.9,2.8,5.3,4.3,10.1,4.3
		c1.7,0,3.6-0.1,5.5-0.2s3.4-0.4,4.3-0.6V50.1h14.3L305.3,110.2L305.3,110.2z"/>
	<path class="st0" d="M437.8,113.5h-14.3V50h14.3V113.5z"/>
	<path class="st0" d="M276.8,101.5h14.3V50.1h14.4v63.5h-25.8c0,0-6.4,0-9.6,0c-5.7,0-10.1-2.2-12.2-4.6c-2-2.4-4.2-6.1-4.2-11
		c0-4.8,0-7.3,0-11.6V50.2H268v34.1c0,3.3,0-1.3,0,11.1C268,100.5,271.1,101.5,276.8,101.5z"/>
	<path class="st0" d="M476,101.5h14.3V50.1h14.3v63.5h-25.8c0,0-6.4,0-9.6,0c-5.7,0-10.1-2.2-12.2-4.6c-2-2.4-4.2-6.1-4.2-11
		c0-4.8,0-7.3,0-11.6V50.2h14.3v34.1c0,3.3,0-1.3,0,11.1C467.2,100.5,470.4,101.5,476,101.5z"/>
	<path class="st0" d="M551.5,62.1h-14.3v51.4h-14.3V50h25.8c0,0,6.4,0,9.6,0c5.7,0,10.1,2.2,12.2,4.6c2,2.4,4.2,6.1,4.2,11
		s0,7.3,0,11.6v36.3h-14.3V79.4c0-3.3,0,1.3,0-11.1C560.3,63.1,557.2,62.1,551.5,62.1z"/>
	<path class="st0" d="M589,62.1h-14.3v51.4h-14.3V50h25.8c0,0,6.4,0,9.6,0c5.7,0,10.1,2.2,12.2,4.6c2,2.4,4.2,6.1,4.2,11
		s0,7.3,0,11.6v36.3h-14.3V79.4c0-3.3,0,1.3,0-11.1C597.7,63.1,594.5,62.1,589,62.1z"/>
	<path class="st0" d="M360.4,101.5h-14.3c-5.5,0-8.8-1-8.8-6.4c0-12.4,0-7.8,0-11.1V62H356l3.3-12h-22V27.7L323,31v19l0,0v36.2
		c0,4.2,0,6.7,0,11.6c0,4.8,2.2,8.6,4.2,11c2.2,2.4,6.5,4.6,12.2,4.6c3.3,0,21.2,0,21.2,0L360.4,101.5z"/>
	<path class="st0" d="M408.4,62.1h-12c-5.5,0-8.8,1-8.8,6.4c0,12.4,0,7.8,0,11.1v34.1h-14.3V77.4c0-4.2,0-6.7,0-11.6s2.2-8.6,4.2-11
		s6.5-4.6,12.2-4.6c3.3,0,22.2,0,22.2,0L408.4,62.1z"/>
</g>
</svg>
