<?xml version="1.0" encoding="utf-8"?>
<!-- Generator: Adobe Illustrator 21.0.0, SVG Export Plug-In . SVG Version: 6.00 Build 0)  -->
<svg version="1.1" id="Camada_4" xmlns="http://www.w3.org/2000/svg" xmlns:xlink="http://www.w3.org/1999/xlink" x="0px" y="0px"
	 viewBox="0 0 1920 865" style="enable-background:new 0 0 1920 865;" xml:space="preserve">
<style type="text/css">
	.st0{fill:#FAFAFB;}
	.st1{fill:url(#SVGID_1_);}
	.st2{fill:url(#SVGID_2_);}
	.st3{fill:url(#SVGID_3_);}
	.st4{fill:url(#SVGID_4_);}
	.st5{fill:url(#SVGID_5_);}
	.st6{fill:url(#SVGID_6_);}
	.st7{fill:url(#SVGID_7_);}
	.st8{fill:url(#SVGID_8_);}
	.st9{fill:url(#SVGID_9_);}
</style>
<polygon class="st0" points="0,734.7 960,865 1920,734.7 1920,0 960,130.3 0,0 "/>
<linearGradient id="SVGID_1_" gradientUnits="userSpaceOnUse" x1="0" y1="176.6477" x2="1920" y2="176.6477">
	<stop  offset="0" style="stop-color:#99CCCC;stop-opacity:0.2"/>
	<stop  offset="8.962709e-02" style="stop-color:#99CCCC;stop-opacity:0.1821"/>
	<stop  offset="1" style="stop-color:#99CCCC;stop-opacity:0"/>
</linearGradient>
<polygon class="st1" points="0,91.9 1920,353.3 1920,0 960,130.3 0,0 "/>
<linearGradient id="SVGID_2_" gradientUnits="userSpaceOnUse" x1="151.5156" y1="8.620191e-08" x2="151.5156" y2="701.125">
	<stop  offset="0" style="stop-color:#99CCCC;stop-opacity:0.2"/>
	<stop  offset="1" style="stop-color:#99CCCC;stop-opacity:0"/>
</linearGradient>
<polygon class="st2" points="303,701.1 0,701.1 0,0 303,41.1 "/>
<linearGradient id="SVGID_3_" gradientUnits="userSpaceOnUse" x1="0" y1="690.3688" x2="960.0312" y2="690.3688">
	<stop  offset="0" style="stop-color:#99CCCC;stop-opacity:0.2"/>
	<stop  offset="1" style="stop-color:#99CCCC;stop-opacity:0"/>
</linearGradient>
<polyline class="st3" points="0,515.7 960,646.4 960,865 0,734.7 0,515.7 "/>
<linearGradient id="SVGID_4_" gradientUnits="userSpaceOnUse" x1="1789.0101" y1="91.9417" x2="1789.0101" y2="769.345">
	<stop  offset="0" style="stop-color:#99CCCC;stop-opacity:0.3"/>
	<stop  offset="1" style="stop-color:#99CCCC;stop-opacity:0"/>
</linearGradient>
<polygon class="st4" points="1920,91.9 1658,127.6 1658,769.3 1920,733.8 "/>
<linearGradient id="SVGID_5_" gradientUnits="userSpaceOnUse" x1="-0.411" y1="266.2995" x2="1919.589" y2="266.2995" gradientTransform="matrix(-1 0 0 1 1919.589 0)">
	<stop  offset="0" style="stop-color:#99CCCC;stop-opacity:0.2"/>
	<stop  offset="0.9988" style="stop-color:#99CCCC;stop-opacity:0"/>
</linearGradient>
<polygon class="st5" points="1920,271.3 0.5,532.6 0,0 960,130.3 1920,0 "/>
<linearGradient id="SVGID_6_" gradientUnits="userSpaceOnUse" x1="652.0485" y1="623.2334" x2="652.0485" y2="69.7606">
	<stop  offset="0" style="stop-color:#99CCCC;stop-opacity:0.2"/>
	<stop  offset="8.962709e-02" style="stop-color:#99CCCC;stop-opacity:0.1821"/>
	<stop  offset="1" style="stop-color:#99CCCC;stop-opacity:0"/>
</linearGradient>
<polygon class="st6" points="514,585.7 790.1,623.2 790.1,107.2 514,69.8 "/>
<linearGradient id="SVGID_7_" gradientUnits="userSpaceOnUse" x1="862.6251" y1="548.6113" x2="862.6251" y2="-4.752" gradientTransform="matrix(-1 0 0 -1 1303.686 589.7375)">
	<stop  offset="0" style="stop-color:#FFFFFF;stop-opacity:0.2"/>
	<stop  offset="8.962709e-02" style="stop-color:#FFFFFF;stop-opacity:0.1821"/>
	<stop  offset="1" style="stop-color:#FFFFFF;stop-opacity:0"/>
</linearGradient>
<polygon class="st7" points="579.1,78.6 303,41.1 303,556.5 579.1,594.5 "/>
<linearGradient id="SVGID_8_" gradientUnits="userSpaceOnUse" x1="205.6251" y1="865" x2="205.6251" y2="274.9291" gradientTransform="matrix(-1 0 0 1 1303.686 0)">
	<stop  offset="0" style="stop-color:#99CCCC;stop-opacity:0.15"/>
	<stop  offset="0.9988" style="stop-color:#99CCCC;stop-opacity:0"/>
</linearGradient>
<polygon class="st8" points="1236.1,827.4 960,865 960,274.9 1236.1,274.9 "/>
<linearGradient id="SVGID_9_" gradientUnits="userSpaceOnUse" x1="-960.3485" y1="690.371" x2="-0.3798" y2="690.371" gradientTransform="matrix(-1 0 0 1 959.6515 0)">
	<stop  offset="0" style="stop-color:#FFFFFF;stop-opacity:0.75"/>
	<stop  offset="1" style="stop-color:#FFFFFF;stop-opacity:0"/>
</linearGradient>
<polyline class="st9" points="1920,515.7 960,646.4 960,865 1920,734.7 1920,515.7 "/>
</svg>
