<?xml version="1.0" encoding="utf-8"?>
<!-- Generator: Adobe Illustrator 21.0.0, SVG Export Plug-In . SVG Version: 6.00 Build 0)  -->
<svg version="1.1" xmlns="http://www.w3.org/2000/svg" xmlns:xlink="http://www.w3.org/1999/xlink" x="0px" y="0px"
	 viewBox="0 0 1920 800" style="enable-background:new 0 0 1920 800;" xml:space="preserve">
<style type="text/css">
	.st0{fill:url(#SVGID_1_);}
	.st1{fill:url(#SVGID_2_);}
	.st2{fill:url(#SVGID_3_);}
	.st3{fill:url(#SVGID_4_);}
	.st4{fill:url(#SVGID_5_);}
	.st5{fill:url(#SVGID_6_);}
	.st6{fill:url(#SVGID_7_);}
	.st7{fill:url(#SVGID_8_);}
	.st8{fill:url(#SVGID_9_);}
	.st9{fill:url(#SVGID_10_);}
	.st10{display:none;}
</style>
<g id="Camada_4">
	<linearGradient id="SVGID_1_" gradientUnits="userSpaceOnUse" x1="1607.4271" y1="982.2812" x2="312.5729" y2="-312.5729">
		<stop  offset="1.215280e-03" style="stop-color:#11998E"/>
		<stop  offset="0.1885" style="stop-color:#149F8D"/>
		<stop  offset="0.4302" style="stop-color:#1BAF8A"/>
		<stop  offset="0.7017" style="stop-color:#27C984"/>
		<stop  offset="0.9932" style="stop-color:#38EE7D"/>
		<stop  offset="1" style="stop-color:#38EF7D"/>
	</linearGradient>
	<polygon class="st0" points="0,669.7 960,800 1920,669.7 1920,0 960,130.3 0,0 	"/>
	<linearGradient id="SVGID_2_" gradientUnits="userSpaceOnUse" x1="0" y1="176.6477" x2="1920" y2="176.6477">
		<stop  offset="0" style="stop-color:#E0FAF1;stop-opacity:0.2"/>
		<stop  offset="8.951709e-02" style="stop-color:#E0FAF1;stop-opacity:0.1821"/>
		<stop  offset="0.9988" style="stop-color:#E0FAF1;stop-opacity:0"/>
	</linearGradient>
	<polygon class="st1" points="0,91.9 1920,353.3 1920,0 960,130.3 0,0 	"/>
	<linearGradient id="SVGID_3_" gradientUnits="userSpaceOnUse" x1="151.5156" y1="0" x2="151.5156" y2="710.8345">
		<stop  offset="0" style="stop-color:#12896D;stop-opacity:0.2"/>
		<stop  offset="1" style="stop-color:#12896D;stop-opacity:0"/>
	</linearGradient>
	<polygon class="st2" points="303,710.8 0,669.7 0,0 303,41.1 	"/>
	<linearGradient id="SVGID_4_" gradientUnits="userSpaceOnUse" x1="0" y1="625.3688" x2="960.0312" y2="625.3688">
		<stop  offset="0" style="stop-color:#12896D;stop-opacity:0.2"/>
		<stop  offset="1" style="stop-color:#12896D;stop-opacity:0"/>
	</linearGradient>
	<polyline class="st3" points="0,450.7 960,581.4 960,800 0,669.7 0,450.7 	"/>

		<linearGradient id="SVGID_5_" gradientUnits="userSpaceOnUse" x1="-0.411" y1="266.2995" x2="1919.589" y2="266.2995" gradientTransform="matrix(-1 0 0 1 1919.589 0)">
		<stop  offset="0" style="stop-color:#E0FAF1;stop-opacity:0.2"/>
		<stop  offset="0.9988" style="stop-color:#E0FAF1;stop-opacity:0"/>
	</linearGradient>
	<polygon class="st4" points="1920,271.3 0.5,532.6 0,0 960,130.3 1920,0 	"/>
	<linearGradient id="SVGID_6_" gradientUnits="userSpaceOnUse" x1="652.0485" y1="558.2375" x2="652.0485" y2="69.7606">
		<stop  offset="0" style="stop-color:#E0FAF1;stop-opacity:0.1"/>
		<stop  offset="8.962709e-02" style="stop-color:#E0FAF1;stop-opacity:9.103730e-02"/>
		<stop  offset="1" style="stop-color:#E0FAF1;stop-opacity:0"/>
	</linearGradient>
	<polygon class="st5" points="514,520.7 790.1,558.2 790.1,107.2 514,69.8 	"/>

		<linearGradient id="SVGID_7_" gradientUnits="userSpaceOnUse" x1="862.6251" y1="483.6114" x2="862.6251" y2="-4.7914" gradientTransform="matrix(-1 0 0 -1 1303.686 524.7375)">
		<stop  offset="0" style="stop-color:#E0FAF1;stop-opacity:0.1"/>
		<stop  offset="8.962709e-02" style="stop-color:#E0FAF1;stop-opacity:9.103730e-02"/>
		<stop  offset="1" style="stop-color:#E0FAF1;stop-opacity:0"/>
	</linearGradient>
	<polygon class="st6" points="579.1,78.6 303,41.1 303,492 579.1,529.5 	"/>

		<linearGradient id="SVGID_8_" gradientUnits="userSpaceOnUse" x1="205.6251" y1="800" x2="205.6251" y2="209.9291" gradientTransform="matrix(-1 0 0 1 1303.686 0)">
		<stop  offset="0" style="stop-color:#E0FAF1;stop-opacity:0.1"/>
		<stop  offset="8.951709e-02" style="stop-color:#E0FAF1;stop-opacity:9.103730e-02"/>
		<stop  offset="0.9988" style="stop-color:#E0FAF1;stop-opacity:0"/>
	</linearGradient>
	<polygon class="st7" points="1236.1,762.4 960,800 960,209.9 1236.1,209.9 	"/>

		<linearGradient id="SVGID_9_" gradientUnits="userSpaceOnUse" x1="-960.3485" y1="625.371" x2="-0.3798" y2="625.371" gradientTransform="matrix(-1 0 0 1 959.6515 0)">
		<stop  offset="0" style="stop-color:#E0FAF1;stop-opacity:5.000000e-02"/>
		<stop  offset="1" style="stop-color:#E0FAF1;stop-opacity:0"/>
	</linearGradient>
	<polyline class="st8" points="1920,450.7 960,581.4 960,800 1920,669.7 1920,450.7 	"/>
	<linearGradient id="SVGID_10_" gradientUnits="userSpaceOnUse" x1="1789.0101" y1="91.9417" x2="1789.0101" y2="705.2655">
		<stop  offset="0" style="stop-color:#12896D;stop-opacity:0.3"/>
		<stop  offset="1" style="stop-color:#12896D;stop-opacity:0"/>
	</linearGradient>
	<polygon class="st9" points="1920,91.9 1658,127.6 1658,705.3 1920,669.7 	"/>
</g>
<g id="Camada_5" class="st10">
</g>
</svg>
